# xmcd
#
# Track frame offsets:
#	150
#	12985
#	28970
#	45500
#	54487
#	72435
#	88160
#	99502
#	110845
#	130622
#
# Disc length: 2013
#
# Revision: 1
# Processed by: cddbd v1.5.1PL0 Copyright (c) Steve Scherf et al.
# Submitted via: dBpowerAMP V4.0
# Normalized: r0:TSWAP
#
DISCID=8707db0a
DTITLE=Various Artist - Hot Country Trax
DYEAR=1998
DGENRE=Country
TTITLE0=Lyle Lovett - Cowboy Man
TTITLE1=Reba McEntire - Somebody Should Leave
TTITLE2=Mark Chesnutt - Too Cold At Home
TTITLE3=Patsy Cline - Walkin' After Midnight
TTITLE4=Vince Gill - Look At Us
TTITLE5=Judds - Why Not Me
TTITLE6=Patty Loveless - Timber I'm Falling In Love
TTITLE7=Tracy Byrd - Holdin' Heaven
TTITLE8=Nanci Giffith - There Is A Light Behind
TTITLE9=Steve Earle - Copperhead Road
EXTD=
EXTT0=
EXTT1=
EXTT2=
EXTT3=
EXTT4=
EXTT5=
EXTT6=
EXTT7=
EXTT8=
EXTT9=
PLAYORDER=
